<svg xmlns="http://www.w3.org/2000/svg" xmlns:xlink="http://www.w3.org/1999/xlink" width="200" height="200" viewBox="0 0 52.9 52.9"><defs><linearGradient id="c"><stop stop-color="#4d00fb" offset="0"/><stop stop-color="#d600ed" offset="1"/></linearGradient><linearGradient id="b"><stop stop-color="#fdfc13" offset="0"/><stop stop-color="#ffe802" offset="1"/></linearGradient><linearGradient id="a"><stop stop-color="#00f8ff" offset="0"/><stop stop-color="#39a3ff" offset="1"/></linearGradient><linearGradient xlink:href="#a" id="h" x1="26.5" y1="247.7" x2="26.5" y2="267.1" gradientUnits="userSpaceOnUse"/><linearGradient xlink:href="#b" id="i" x1="32.4" y1="270.5" x2="49.1" y2="270.5" gradientUnits="userSpaceOnUse"/><linearGradient xlink:href="#c" id="j" x1="12" y1="260.1" x2="12" y2="281" gradientUnits="userSpaceOnUse"/><linearGradient xlink:href="#d" id="m" x1="95.9" y1="82.1" x2="95.9" y2="143.2" gradientUnits="userSpaceOnUse" gradientTransform="translate(-13.3 -28.5) scale(.50879)"/><linearGradient id="d"><stop stop-color="#111" offset="0"/><stop stop-color="#6a6a6a" offset="1"/></linearGradient><linearGradient xlink:href="#e" id="n" x1="56.7" y1="137.5" x2="56.7" y2="84" gradientUnits="userSpaceOnUse" gradientTransform="translate(-1 -32.3) scale(.52924)"/><linearGradient id="e"><stop stop-color="#c7c7c7" offset="0"/><stop stop-color="#444" offset="1"/></linearGradient><linearGradient gradientTransform="translate(-24.4 214.3) scale(.52924)" xlink:href="#f" id="k" x1="105.9" y1="139" x2="105.9" y2="154.7" gradientUnits="userSpaceOnUse"/><linearGradient id="f"><stop stop-color="#23005f" offset="0"/><stop stop-color="#2d00b0" offset="1"/></linearGradient><linearGradient gradientTransform="translate(-7.7 214.2) scale(.52924)" xlink:href="#g" id="l" x1="90.5" y1="131" x2="90.5" y2="115.7" gradientUnits="userSpaceOnUse"/><linearGradient id="g"><stop stop-color="#38da00" offset="0"/><stop stop-color="#ffaea2" offset="1"/></linearGradient></defs><path style="fill:url(#h)" d="M26.5 244.4 4.9 256.8l15.7 9h11.8l15.6-9z" transform="translate(0 -244)"/><path style="fill:url(#i)" d="m49.1 258.8-16.7 9.6-3 2.1 3 2.2 16.7 9.6z" transform="translate(0 -244)"/><path style="fill:url(#j)" d="M3.8 258.8v23.5l16.8-9.7 2.9-2-2.9-2.1z" transform="translate(0 -244)"/><path transform="translate(0 -244)" d="M48 284.3H5l21.5 12.4z" style="fill:url(#k)"/><path d="M48 284.3s-5.2 3.5-21.5 3.5c-16 0-21.6-3.5-21.6-3.5l21.6-12.6z" style="fill:url(#l)" transform="translate(0 -244)"/><path style="fill:url(#m)" d="m20.6 7 10.7 1.3 1.1 37.2H20.6Z"/><path style="fill:url(#n)" d="M20.6 7c0 7.9 11.8 31.4 11.8 38.5V7Z"/></svg>