<svg xmlns="http://www.w3.org/2000/svg" viewBox="0 0 52 52"><path d="M22.7 5.06c-5.47.1-11.08 3.87-13.52 6.86-2.56 3.13-2.8 8.93 1.91 11.2 4.16 1.99 12.23 1.49 16.61 1.38 4.39-.1 11.79-.39 13.52 3.1 2.13 4.3-2.07 10-5.57 12.64-3.51 2.63-11.35 3.04-15.79 2.06-4.44-.98-8.36-2.53-8.36-2.53s3.78 3.52 7.58 4.98c4.13 1.58 14.04 2.48 19.15-1.24 5.86-4.27 7.89-9.56 7.94-13.54.05-3.97-1.75-7.94-5.98-8.87-4.23-.93-9.45-.85-16.3-.67-2.85.07-8.07.1-9.95-.8-2.7-1.31-3.5-3.8.14-6.63 5.11-4.6 14.76-6 19.86 2.06 1.14 2.27 4.14 1.7 4.29-.36.16-2.37-2.22-4.95-4.5-6.76-2.26-1.8-5.56-2.99-11.03-2.88Z"/></svg>