<svg xmlns="http://www.w3.org/2000/svg" width="24" height="26.667"><path style="fill:#000" d="M14.001 22.045c-.528-.17-.848-.349-1.826-1.016-1.215-.829-1.713-1.107-2.422-1.352-.665-.23-.927-.245-3.348-.176-1.026.03-1.387-.05-1.797-.391-.194-.163-.224-.227-.224-.478 0-.32.079-.434.907-1.322.503-.538.598-.757.495-1.14-.1-.373-.398-.678-1.427-1.462-1.263-.963-1.638-1.38-1.638-1.817 0-.493.304-.826 1.565-1.715 1.277-.9 1.76-1.483 1.76-2.12 0-.161-.077-.556-.171-.877-.337-1.147-.21-1.625.661-2.475.875-.854 2.173-1.571 3.145-1.738.653-.112 1.244-.006 1.97.352.47.232.677.396 1.414 1.114.475.463.972.916 1.104 1.006.613.416 1.684.772 2.701.898 2.502.309 4.499 1.346 4.499 2.337 0 .415-.253.752-1.125 1.494-1.547 1.315-1.607 1.718-.463 3.105.397.482.676.995.674 1.242-.005.5-.4.933-1.862 2.04-1.586 1.202-2.015 1.723-2.184 2.658-.164.898-.247 1.105-.578 1.436-.496.497-1.11.63-1.83.397z"/></svg>