<?xml version="1.0" encoding="UTF-8"?>
<svg version="1.1" viewBox="0 0 24 26.667" xmlns="http://www.w3.org/2000/svg">
<circle cx="11.992" cy="13.46" r="10.194" fill="none" opacity=".75" stroke="#000" stroke-linecap="round" stroke-linejoin="round" stroke-width="2.222"/>
<path d="m11.922 6.5645a6.9389 6.9389 0 0 0-6.9395 6.9375 6.9389 6.9389 0 0 0 6.9395 6.9395 6.9389 6.9389 0 0 0 0.083984-0.003906v-13.869a6.9389 6.9389 0 0 0-0.083984-0.0039063z" opacity=".75"/>
<path d="m12.09 6.5645a6.9389 6.9389 0 0 1 6.9395 6.9375 6.9389 6.9389 0 0 1-6.9395 6.9395 6.9389 6.9389 0 0 1-0.08398-0.0039v-13.869a6.9389 6.9389 0 0 1 0.08398-0.00391z" fill="#fff" opacity=".75"/>
</svg>
