<?xml version="1.0" encoding="UTF-8"?>
<svg version="1.1" viewBox="0 0 24 26.667" xmlns="http://www.w3.org/2000/svg">
<rect x="3.1156e-15" y="4.996e-16" width="24" height="26.667" fill="#fff"/>
<g transform="matrix(1.2791 0 0 1.2791 -21.781 -1.7344)">
<path transform="matrix(.78179 0 0 .78179 17.028 1.3559)" d="m15.002 0v3h3v-3zm3 3v2.998h2.998v-2.998zm2.998 0h3v-3h-3zm0 2.998v3h3v-3zm0 3h-2.998v2.998h2.998zm0 2.998v3h3v-3zm0 3h-2.998v2.998h2.998zm0 2.998v3h3v-3zm0 3h-2.998v2.998h2.998zm0 2.998v3h3v-3zm-2.998 0h-3v3h3zm-3 0v-2.998h-2.998v2.998zm0-2.998h3v-3h-3zm0-3v-2.998h-2.998v2.998zm0-2.998h3v-3h-3zm0-3v-2.998h-2.998v2.998zm0-2.998h3v-3h-3zm0-3v-2.998h-2.998v2.998z" fill="#c9c9c9"/>
</g>
<path d="m11.963 2.2608a11.215 11.215 0 0 0-11.216 11.214 11.215 11.215 0 0 0 11.216 11.216 11.215 11.215 0 0 0 0.02755-2e-3v-22.425a11.215 11.215 0 0 0-0.02755-0.00197z" fill="#2185ff"/>
<path d="m12.019 2.2608a11.215 11.215 0 0 1 11.216 11.214 11.215 11.215 0 0 1-11.216 11.216 11.215 11.215 0 0 1-0.02755-2e-3v-22.425a11.215 11.215 0 0 1 0.02755-0.00197z" fill-opacity=".6"/>
</svg>
