<?xml version="1.0" encoding="UTF-8"?>
<svg version="1.1" viewBox="0 0 24 26.667" xmlns="http://www.w3.org/2000/svg">
<path d="m11.865 3.8184c-5.6821 0-10.307 4.6245-10.307 10.307 0 5.6821 4.6245 10.307 10.307 10.307 4.1369 0 7.7046-2.4564 9.3438-5.9824l-1.5469-0.70508c-1.364 2.9419-4.3327 4.9805-7.7969 4.9805-4.7601 0-8.6016-3.8395-8.6016-8.5996 0-4.7601 3.8414-8.6016 8.6016-8.6016 3.0458 0 5.6964 1.5862 7.2227 3.9668l-4.1543-1.25-0.45508 1.5078 5.0938 1.5332 1.5098 0.45312 0.45312-1.5078 1.5332-5.0918-1.5098-0.45508-1.125 3.7422c-1.8484-2.7706-4.9957-4.6035-8.5684-4.6035z" fill="#484848"/>
</svg>
