<?xml version="1.0" encoding="UTF-8"?>
<svg version="1.1" viewBox="0 0 85.333 85.333" xmlns="http://www.w3.org/2000/svg">
<path d="m42.758 1.3789c-22.851 1e-7 -41.469 18.618-41.469 41.469 0 22.851 18.618 41.469 41.469 41.469 22.851 0 41.469-18.618 41.469-41.469 0-22.851-18.618-41.469-41.469-41.469zm0 8.6992c18.149 0 32.768 14.62 32.768 32.77 0 18.149-14.618 32.77-32.768 32.77-18.149 0-32.77-14.62-32.77-32.77 0-18.149 14.62-32.77 32.77-32.77zm0.44531 10.354c-3.1254-0.029131-6.2393 0.64057-8.7051 2.2793-3.8861 2.5675-4.8607 6.8708-5.0215 10.754 2.4623 0.035275 4.9255-0.026088 7.3867-0.080078 0.035183-1.6301 0.30231-3.2901 1.1211-4.7871 1.59-3.0609 7.2466-3.3862 9.7168-0.93359 2.2222 2.4291 1.3875 5.4217-0.32617 7.9336-1.6834 2.123-3.7437 4.4018-5.5742 6.4414-3.0622 2.9741-2.9702 7.2271-2.9863 10.941h7.4805c0.21852-4.5456-0.87811-5.3926 6.7344-12.865 2.5828-2.778 3.9748-7.0212 3.3984-10.486-0.38605-3.7228-3.3029-7.3108-7.7246-8.4492-1.746-0.46176-3.6248-0.73057-5.5-0.74805zm-4.5684 36.102v7.5215h7.6855v-7.5215h-7.6855z" fill="#727272" stroke-width="1.6717"/>
</svg>
