<svg viewBox="0 0 85.33 85.33" xmlns="http://www.w3.org/2000/svg"><path d="M42.76 1.38A41.54 41.54 0 0 0 1.29 42.85a41.54 41.54 0 0 0 41.47 41.47 41.54 41.54 0 0 0 41.47-41.47A41.54 41.54 0 0 0 42.76 1.38zm0 8.7a32.7 32.7 0 0 1 32.77 32.77 32.7 32.7 0 0 1-32.77 32.77A32.7 32.7 0 0 1 9.99 42.85a32.7 32.7 0 0 1 32.77-32.77zm.44 10.35c-3.12-.03-6.24.64-8.7 2.28-3.89 2.57-4.86 6.87-5.02 10.76 2.46.03 4.92-.03 7.38-.08.04-1.63.3-3.3 1.12-4.8 1.6-3.05 7.25-3.38 9.72-.93 2.22 2.43 1.39 5.43-.32 7.94-1.69 2.12-3.75 4.4-5.58 6.44-3.06 2.97-2.97 7.23-2.99 10.94h7.49c.21-4.54-.88-5.4 6.73-12.86 2.58-2.78 3.97-7.03 3.4-10.49-.39-3.72-3.3-7.31-7.73-8.45a22.52 22.52 0 0 0-5.5-.75zm-4.57 36.1v7.53h7.69v-7.53h-7.69z" fill="#727272"/></svg>