<?xml version="1.0" encoding="UTF-8"?>
<svg xmlns="http://www.w3.org/2000/svg" version="1.1" viewBox="0 0 85.3 85.3">
  <defs>
    <style>
      .cls-1 {
        fill: #4f4f4f;
      }
    </style>
  </defs>
  <!-- Generator: Adobe Illustrator 28.7.1, SVG Export Plug-In . SVG Version: 1.2.0 Build 142)  -->
  <g>
    <g id="Layer_1">
      <g id="Layer_1-2" data-name="Layer_1">
        <g id="gAXRvw.tif">
          <g>
            <path class="cls-1" d="M42.6,83.1h-10.5c-4,0-8.1-.2-12-1.3-9-2.5-14.5-8.3-16.5-17.5-.7-3.2-.9-6.4-1-9.7-.3-8.2-.3-16.5-.2-24.7,0-4.4.4-8.8,2.2-12.8,3-6.9,8.1-11.4,15.5-13.3,2.7-.7,5.5-.9,8.3-1.1,3.4-.2,6.8-.3,10.1.3,1,.2,1.9.5,2.7,1,1.9,1.2,2,3.7.3,5.1-1.3,1.1-3,1.5-4.6,1.7-2.9.4-5.8.3-8.7.4-2.2,0-4.5,0-6.7.6-5.8,1.4-9.5,5.1-11.1,10.8-.7,2.5-.9,5-1.1,7.6-.3,5.1-.3,10.2-.4,15.2-.1,4,0,8.1.1,12.1,0,2.8.3,5.6,1.3,8.2,2.2,5.7,6.4,9.2,12.5,10.3,2.6.5,5.2.6,7.9.7,5.6.2,11.3.2,16.9,0,4.1,0,8.2,0,12.2-.5,3.7-.4,7.2-1.3,10.2-3.8,3.6-3,5.4-6.8,6-11.4.5-4.1.6-8.1.5-12.2,0-1.4,0-2.8.6-4.2.4-1,1.1-1.8,2.2-1.8s2.2.5,2.7,1.6c.4.8.6,1.7.6,2.6.3,3.8,0,7.6-.3,11.3,0,2.9-.5,5.7-1.4,8.5-2.7,7.8-8.1,12.8-16.2,14.9-3,.8-6.1.9-9.2,1.1-4.3.2-8.6,0-12.8,0h0v.2Z"/>
            <path class="cls-1" d="M83.4,11.3c0,1-.6,1.9-1.7,2.1-1.3.4-2.6.7-3.8,1-.5.1-.8.4-.9.9-.3,1.2-.6,2.5-.9,3.7s-1.2,2-2.4,2-1.9-.8-2.2-1.9c-.3-1.2-.7-2.5-.9-3.8,0-.4-.3-.7-.7-.8-1.6-.4-3.1-1-4.6-1.7-1-.4-1.3-1.8-.6-2.8.3-.5.8-.8,1.5-1,1.1-.3,2.3-.6,3.4-.8.8-.1,1.2-.5,1.3-1.3.2-1.2.6-2.3.9-3.5.3-1.1,1.1-1.7,2.2-1.7s1.8.7,2.1,1.7c.3,1.1.6,2.3.9,3.4.2.8.5,1.3,1.4,1.4,1.2.2,2.3.6,3.5.9,1,.3,1.6,1.1,1.6,2.2h-.1Z"/>
            <path class="cls-1" d="M59.9,34.6c0,.8-.5,1.4-1.3,1.6-.9.2-1.7.3-2.6.5-1.2.2-1.7.7-2,2-.2.9-.3,1.8-.5,2.7s-.8,1.4-1.6,1.4-1.5-.5-1.7-1.4c-.2-1-.4-2-.6-3-.2-.9-.6-1.4-1.5-1.7-1-.3-2-.3-3-.8s-.9-.7-.9-1.3.4-1.2,1.1-1.4c.8-.2,1.7-.4,2.5-.5,1.1-.2,1.8-.8,2-2,0-.9.3-1.7.5-2.5s.8-1.4,1.6-1.5c.8,0,1.5.6,1.6,1.5.2.9.3,1.8.5,2.7.2.9.7,1.5,1.7,1.7.9.2,1.8.3,2.7.5s1.4.8,1.5,1.6h0Z"/>
          </g>
        </g>
      </g>
    </g>
  </g>
</svg>