<?xml version="1.0" encoding="UTF-8"?>
<svg version="1.1" viewBox="0 0 26.667 26.667" xmlns="http://www.w3.org/2000/svg">
<path d="m10.875 0.87109a1.0501 1.0501 0 0 0-1.0488 1.0508v0.27734h-3.9785a1.0501 1.0501 0 0 0-1.0508 1.0488v0.87695a1.0501 1.0501 0 0 0 1.0508 1.0488h14.209a1.0501 1.0501 0 0 0 1.0508-1.0488v-0.87695a1.0501 1.0501 0 0 0-1.0508-1.0488h-3.8379v-0.27734a1.0501 1.0501 0 0 0-1.0488-1.0508h-4.2949zm-4.7168 5.4238a1.0501 1.0501 0 0 0-1.0508 1.0488v16.752a1.0501 1.0501 0 0 0 1.0508 1.0508h13.869a1.0501 1.0501 0 0 0 1.0508-1.0508v-16.752a1.0501 1.0501 0 0 0-1.0508-1.0488h-13.869zm2.4922 1.6191a1.5002 1.5002 0 0 1 1.5215 1.5215v12.627a1.5002 1.5002 0 1 1-3 0v-12.627a1.5002 1.5002 0 0 1 1.4785-1.5215zm4.5469 0a1.5002 1.5002 0 0 1 1.5234 1.5215v12.627a1.5002 1.5002 0 1 1-3 0v-12.627a1.5002 1.5002 0 0 1 1.4766-1.5215zm4.5762 0a1.5002 1.5002 0 0 1 1.5234 1.5215v12.627a1.5002 1.5002 0 1 1-3 0v-12.627a1.5002 1.5002 0 0 1 1.4766-1.5215z" fill="#4f4f4f"/>
</svg>
