<svg viewBox="0 0 26.67 26.67" xmlns="http://www.w3.org/2000/svg"><path d="M10.88.87a1.05 1.05 0 0 0-1.05 1.05v.28H5.85A1.05 1.05 0 0 0 4.8 3.25v.87a1.05 1.05 0 0 0 1.05 1.05h14.2a1.05 1.05 0 0 0 1.06-1.05v-.87a1.05 1.05 0 0 0-1.05-1.05h-3.84v-.28A1.05 1.05 0 0 0 15.17.87h-4.3zM6.16 6.3A1.05 1.05 0 0 0 5.1 7.34V24.1a1.05 1.05 0 0 0 1.05 1.05h13.87a1.05 1.05 0 0 0 1.05-1.05V7.34a1.05 1.05 0 0 0-1.05-1.05H6.16zm2.49 1.62a1.5 1.5 0 0 1 1.52 1.53v12.62a1.5 1.5 0 1 1-3 0V9.44A1.5 1.5 0 0 1 8.65 7.9zm4.55 0a1.5 1.5 0 0 1 1.52 1.53v12.62a1.5 1.5 0 1 1-3 0V9.44A1.5 1.5 0 0 1 13.2 7.9zm4.57 0a1.5 1.5 0 0 1 1.53 1.53v12.62a1.5 1.5 0 1 1-3 0V9.44a1.5 1.5 0 0 1 1.47-1.53z" fill="#4f4f4f"/></svg>