<svg viewBox="0 0 85.33 85.33" xmlns="http://www.w3.org/2000/svg"><path d="M62.92 5.6a11.57 11.57 0 0 0-11.58 11.58 11.57 11.57 0 0 0 .16 1.85L27.1 34.09A11.57 11.57 0 0 0 19.25 31 11.57 11.57 0 0 0 7.68 42.58a11.57 11.57 0 0 0 11.57 11.57 11.57 11.57 0 0 0 8.3-3.53l24.42 14.93a11.57 11.57 0 0 0-.35 2.79 11.57 11.57 0 0 0 11.57 11.57 11.57 11.57 0 0 0 11.57-11.57 11.57 11.57 0 0 0-11.57-11.57 11.57 11.57 0 0 0-7.47 2.75L30.7 44.22a11.57 11.57 0 0 0 .13-1.64 11.57 11.57 0 0 0-.24-2.3l24.17-14.92a11.57 11.57 0 0 0 8.17 3.39 11.57 11.57 0 0 0 11.57-11.57A11.57 11.57 0 0 0 62.92 5.6z" fill="#4f4f4f"/></svg>