<?xml version="1.0" encoding="UTF-8"?>
<svg version="1.1" viewBox="0 0 85.333 85.333" xmlns="http://www.w3.org/2000/svg">
<path d="m62.916 5.6055a11.571 11.571 0 0 0-11.572 11.57 11.571 11.571 0 0 0 0.15625 1.8516l-24.404 15.061a11.571 11.571 0 0 0-7.8418-3.082 11.571 11.571 0 0 0-11.57 11.57 11.571 11.571 0 0 0 11.57 11.57 11.571 11.571 0 0 0 8.2988-3.5234l24.42 14.924a11.571 11.571 0 0 0-0.35742 2.793 11.571 11.571 0 0 0 11.57 11.57 11.571 11.571 0 0 0 11.572-11.57 11.571 11.571 0 0 0-11.572-11.572 11.571 11.571 0 0 0-7.4648 2.748l-25.027-15.295a11.571 11.571 0 0 0 0.13086-1.6445 11.571 11.571 0 0 0-0.24219-2.2969l24.17-14.916a11.571 11.571 0 0 0 8.1641 3.3828 11.571 11.571 0 0 0 11.57-11.57 11.571 11.571 0 0 0-11.57-11.57z" fill="#4f4f4f"/>
</svg>
