<?xml version="1.0" encoding="UTF-8"?>
<svg width="100" height="100" version="1.1" viewBox="0 0 26.458 26.458" xmlns="http://www.w3.org/2000/svg">
<g display="none">
<path d="m25.084 13.229a11.854 11.854 0 0 1-11.854 11.854 11.854 11.854 0 0 1-11.854-11.854 11.854 11.854 0 0 1 11.854-11.854 11.854 11.854 0 0 1 11.854 11.854z" fill="none" opacity=".25" stroke="#f0f" stroke-linecap="round" stroke-width=".13229"/>
</g>
<path d="m11.179 2.5373s9.9824 1.5991 9.9824 10.227c0 9.557-10.158 10.658-10.158 10.658" fill="none" stroke="#1b1b1b" stroke-width="2.0097"/>
<path d="m5.4979 0.76406 10.982-0.44266-4.5829 2.5865 2.1718 4.7974z" fill="#1b1b1b"/>
<path d="m4.5835 25.246 8.5146-6.1811-1.977 4.5693 4.368 2.7202z" fill="#1b1b1b"/>
</svg>
