<svg viewBox="0 0 85.33 85.33" xmlns="http://www.w3.org/2000/svg"><path style="fill:#1c1c1c" d="M26.61 11.389a9.373 9.373 0 0 0-9.374 9.375 9.373 9.373 0 0 0 9.373 9.373 9.373 9.373 0 0 0 9.373-9.373 9.373 9.373 0 0 0-9.373-9.375zM8.29 17.419v6.694h7.953V17.42H8.291zm28.68.003v6.693h40.092v-6.693H36.97zm21.636 16.11a9.373 9.373 0 0 0-9.373 9.372 9.373 9.373 0 0 0 9.373 9.373 9.373 9.373 0 0 0 9.375-9.373 9.373 9.373 0 0 0-9.375-9.373zM8.152 39.575v6.692h40.092v-6.692H8.152zm60.784.06v6.694h8.082v-6.693h-8.082zM36.592 55.716a9.373 9.373 0 0 0-9.373 9.373 9.373 9.373 0 0 0 9.373 9.375 9.373 9.373 0 0 0 9.373-9.375 9.373 9.373 0 0 0-9.373-9.373zm10.332 5.86v6.69H77.07v-6.69H46.924zm-38.787.001v6.694h18.101v-6.694H8.137z"/></svg>