<svg xmlns="http://www.w3.org/2000/svg" viewBox="0 0 49.5 49.5"><path d="M20.2 45.5c0-.7 0-1.3-.2-1.8-.3-.5-1.4-1.4-3.7-3.9-1-1-2-3.3-4-5.3-1-2.2-7.7-6-6.5-7.6 1.2-1.7 4.3-1 7.2.5 1.7 1 3.4 2.7 3.9 2.7 1.5 0 .9-5.5-1.4-11A42 42 0 0 1 13 11c-.6-3 2.6-3.8 3.6-1.7l3.1 6.1c1.4 2.8 2.4 5.3 3 5.2.5-.1-.1-3.7-.6-7.2-.9-6.9-.6-8.6 1.1-8.8 3-.5 3 3.1 4 9 .4 2.1.9 6.6 1.7 6.7.8.1.9-1.4 1-5.5 0-1.4 0-3.6.4-6.8.3-3.2 4.5-3.4 4.4.2v6.1c.1 4-.3 6.8.4 7 .6.3 1.5-3.4 1.7-4.5.3-1 .3-2.5 1-4.9.8-2.3 4-1.9 3.6 1-.3 3-.6 5.7-1.2 8.5-.5 2.8-.4 5.4-.4 8.5 0 3.6-1 8.2-1.7 10.5a16 16 0 0 0-1.3 5z" fill="#515151"/></svg>