<svg xmlns="http://www.w3.org/2000/svg" viewBox="0 0 85.33 85.33"><path style="fill:#1c1c1c;fill-opacity:1;stroke:none;stroke-width:1px;stroke-linecap:butt;stroke-linejoin:miter;stroke-opacity:1" d="M64.69 5.04C70.6-1.2 75.87 1.14 70.35 11c-1.74 3.13-6.6 12.47-11.65 20.06-10.43 15.65-23.1 31.66-23.1 31.66s1.65 4.06-1.82 7.02c-3.01 2.57-6.18 6.78-3.64 9.74 2.77 3.23 4.14 4.15 4.14 4.15s-11.29.5-14.56-4.74c-2.24-3.6-2.77-9.36.85-14.44 2.84-3.98 8.96-6 8.96-6C36.88 46.51 42.6 35.9 49.82 24.99 56.13 15.46 62.1 7.76 64.69 5.04Z"/><path style="fill:#aaa;fill-opacity:1;stroke:none;stroke-width:1px;stroke-linecap:butt;stroke-linejoin:miter;stroke-opacity:1" d="m42.27 54.15-7.15-5.1-5.59 9.41 6.07 4.27z"/></svg>