<svg viewBox="0 0 85.33 85.33" xmlns="http://www.w3.org/2000/svg"><path style="fill:#1c1c1c;fill-opacity:1;stroke:none;stroke-width:1px;stroke-linecap:butt;stroke-linejoin:miter;stroke-opacity:1" d="M70.533 1.584c-1.5-.017-3.627 1.115-5.844 3.455C62.1 7.76 56.13 15.46 49.82 24.99 44.555 32.947 39.722 41.4 37.28 45.534c-2.442 4.135-2.865 6.462-.608 8.485 2.257 2.022 5.714.186 8.009-2.856 2.295-3.041 8.387-11.652 14.018-20.102C63.75 23.47 68.61 14.13 70.35 11c3.45-6.162 2.686-9.387.184-9.416ZM28.714 58.821c-2.059.28-5.223 1.025-8.505 5.568-3.282 4.543-3.936 11.045-.398 15.164s14.468 4.078 14.468 4.078-2.337-1.17-3.898-4.12c-1.56-2.95.056-6.885 3.356-9.274 3.3-2.39 3.16-5.935 1.588-8.518-1.57-2.582-4.552-3.179-6.61-2.898z"/></svg>