<?xml version="1.0" encoding="UTF-8"?>
<svg version="1.1" viewBox="0 0 49.548 49.548" xmlns="http://www.w3.org/2000/svg">
<path d="m19.15 48.311c-0.25453-0.25453-0.28753-0.91949-0.07334-1.4777 0.22122-0.57649-3.1593-4.6156-7.8259-9.3506-4.7238-4.793-8.1172-8.8537-7.9846-9.5546 0.37973-2.0058 4.1352-1.8708 7.8064 0.2807 1.8622 1.0913 3.7907 1.9843 4.2856 1.9843 1.6255 0 0.95141-5.3353-1.466-11.604-2.8316-7.3427-3.5782-11.206-2.316-11.986 1.4788-0.91395 3.8056 1.8468 6.7038 7.9541 1.4962 3.1529 2.8812 5.5716 3.0779 5.375 0.19666-0.19666-0.05076-3.6801-0.5498-7.7409-0.95594-7.7787-0.69922-9.8688 1.2121-9.8688 1.7311 0 3.2296 3.5405 4.2597 10.065 0.50425 3.1935 1.1164 6.329 1.3604 6.9677 0.73205 1.9164 1.6157-2.1274 1.7017-7.7875 0.08393-5.5226 1.3516-8.2642 3.4491-7.4594 1.0753 0.41263 1.2771 1.8465 1.2979 9.2226 0.02068 7.3347 0.18593 8.5217 1.0315 7.4087 0.55377-0.7289 1.4326-3.2278 1.953-5.5531 0.96342-4.305 2.4705-6.4284 3.9247-5.5297 1.1313 0.69921 0.98584 5.3782-0.3377 10.86-0.61689 2.5548-1.134 7.3323-1.1492 10.616-0.0189 4.0912-0.5151 7.2082-1.576 9.8996-0.85161 2.1606-1.5484 4.7864-1.5484 5.8351v1.9068h-8.3871c-4.6129 0-8.5954-0.20825-8.8499-0.46279z" fill="#515151"/>
</svg>
