<?xml version="1.0" encoding="UTF-8"?>
<svg version="1.1" viewBox="0 0 80 80" xmlns="http://www.w3.org/2000/svg">
<path d="m65.854 4.8984c-2.0498-0.01589-4.0305 0.56763-5.0898 1.627l-11.398 11.398c-2.4576 2.4576-3.7727 2.3296-5.8066 2.1602-2.0339-0.16949-4.3223-1.5254-4.3223-1.5254l-3.9824 3.9844 21.355 21.693 3.8145-3.8125s-0.93141-1.8645-1.6094-3.8984c-0.67797-2.0339-0.2544-3.814 2.627-6.6953l11.482-11.482c3.8983-3.8983 1.1011-8.8129-1.5684-11.482-1.3347-1.3347-3.4522-1.9509-5.502-1.9668zm-30.885 27.105-27.076 27.076a2.5002 2.5002 0 0 0-0.73242 1.7676v5.3164l-2.1562 4.8535a2.5002 2.5002 0 0 0 3.1582 3.3594l4.916-1.834h5.8633a2.5002 2.5002 0 0 0 1.7676-0.73242l26.906-26.906-3.5352-3.5371-26.176 26.176h-5.2773a2.5002 2.5002 0 0 0-0.65039 0.089843 2.5002 2.5002 0 0 0 0.18359-0.9375v-4.8125l26.346-26.344-3.5371-3.5352z"/>
</svg>
