<svg viewBox="0 0 49.55 49.55" xmlns="http://www.w3.org/2000/svg"><path d="M19.15 48.31c-.25-.25-.29-.92-.07-1.48.22-.57-3.16-4.61-7.83-9.35-4.72-4.79-8.12-8.85-7.98-9.55.38-2 4.13-1.87 7.8.28 1.86 1.09 3.8 1.98 4.29 1.98 1.62 0 .95-5.33-1.47-11.6-2.83-7.34-3.58-11.2-2.31-11.99 1.47-.91 3.8 1.85 6.7 7.96 1.5 3.15 2.88 5.57 3.08 5.37.2-.2-.05-3.68-.55-7.74-.96-7.78-.7-9.87 1.21-9.87 1.73 0 3.23 3.54 4.26 10.07.5 3.2 1.12 6.33 1.36 6.97.73 1.91 1.62-2.13 1.7-7.8.09-5.51 1.35-8.26 3.45-7.45 1.08.41 1.28 1.84 1.3 9.22.02 7.34.18 8.52 1.03 7.41.55-.73 1.43-3.23 1.95-5.55.97-4.3 2.47-6.43 3.93-5.53 1.13.7.98 5.37-.34 10.86a56.18 56.18 0 0 0-1.15 10.61c-.02 4.1-.51 7.21-1.57 9.9-.86 2.16-1.55 4.79-1.55 5.84v1.9H28c-4.61 0-8.6-.2-8.85-.46z" fill="#515151"/></svg>