<?xml version="1.0" encoding="UTF-8"?>
<svg version="1.1" viewBox="0 0 85.333 85.333" xmlns="http://www.w3.org/2000/svg">
<path d="m42.621 1.2832c-22.832 0-41.428 18.595-41.428 41.428 0 22.832 18.595 41.43 41.428 41.43s41.43-18.597 41.43-41.43c0-22.832-18.597-41.428-41.43-41.428zm0 8.0996c18.455 0 33.328 14.873 33.328 33.328 0 18.455-14.873 33.33-33.328 33.33s-33.328-14.875-33.328-33.33c-1e-7 -18.455 14.873-33.328 33.328-33.328zm-3.0723 11.836a2.6003 2.6003 0 0 0-2.6016 2.5996v13.176h-13.174a2.6003 2.6003 0 0 0-2.5996 2.5996v4.6992a2.6003 2.6003 0 0 0 2.5996 2.6016h13.174v13.174a2.6003 2.6003 0 0 0 2.6016 2.5996h4.6992a2.6003 2.6003 0 0 0 2.5996-2.5996v-13.174h13.176a2.6003 2.6003 0 0 0 2.5996-2.6016v-4.6992a2.6003 2.6003 0 0 0-2.5996-2.5996h-13.176v-13.176a2.6003 2.6003 0 0 0-2.5996-2.5996h-4.6992z" fill="#4f4f4f"/>
</svg>
