<?xml version="1.0" encoding="UTF-8"?>
<svg version="1.1" viewBox="0 0 85.333 85.333" xmlns="http://www.w3.org/2000/svg">
<path d="m39.457 1.582-36.637 21.152 36.637 21.152v-14.879h26.586c1.1189 0.1713 1.563 0.42437 1.7676 0.62891 0.20074 0.20074 0.50114 0.76418 0.7168 1.9395v38.389c-0.06993 0.53881-0.15972 0.72178-0.091797 0.65625 0.06957-0.06711-0.31658 0.12135-1.0469 0.25781h-36.564v13h37.152a6.5006 6.5006 0 0 0 0.78125-0.046875c3.0456-0.36824 6.2283-1.468 8.7031-3.8555 2.4748-2.3874 3.7901-5.8085 4.0488-9.1465a6.5006 6.5006 0 0 0 0.017578-0.50195v-39.504a6.5006 6.5006 0 0 0-0.06836-0.94141c-0.50867-3.4759-1.9033-6.8877-4.4551-9.4395-2.5518-2.5518-6.0107-3.9503-9.4863-4.3848a6.5006 6.5006 0 0 0-0.80664-0.050782h-27.254v-14.426z" fill="#4c4c4c" opacity=".75"/>
</svg>
