<svg viewBox="0 0 80 80" xmlns="http://www.w3.org/2000/svg"><path d="M65.85 4.9c-2.05-.02-4.03.57-5.09 1.63l-11.4 11.4c-2.45 2.45-3.77 2.32-5.8 2.15a12.25 12.25 0 0 1-4.32-1.52l-3.99 3.98 21.36 21.7 3.81-3.82s-.93-1.86-1.6-3.9c-.68-2.03-.26-3.8 2.62-6.7l11.48-11.47c3.9-3.9 1.1-8.82-1.56-11.48-1.34-1.34-3.46-1.96-5.5-1.97zM34.97 32 7.89 59.08a2.5 2.5 0 0 0-.73 1.77v5.31L5 71.02a2.5 2.5 0 0 0 3.16 3.36l4.92-1.84h5.86a2.5 2.5 0 0 0 1.77-.73l26.9-26.9-3.53-3.54L17.9 67.54h-5.27a2.5 2.5 0 0 0-.65.1 2.5 2.5 0 0 0 .18-.94v-4.82l26.35-26.34L34.97 32z"/></svg>