<?xml version="1.0" encoding="UTF-8"?>
<svg version="1.1" viewBox="0 0 85.333 85.333" xmlns="http://www.w3.org/2000/svg">
<path d="m42.621 1.2832c-22.832 0-41.428 18.595-41.428 41.428 0 22.832 18.595 41.43 41.428 41.43s41.43-18.597 41.43-41.43c0-22.832-18.597-41.428-41.43-41.428zm0 8.0996c18.455 0 33.328 14.873 33.328 33.328 0 18.455-14.873 33.33-33.328 33.33s-33.328-14.875-33.328-33.33c-1e-7 -18.455 14.873-33.328 33.328-33.328zm-18.848 27.611c-1.4356 3.59e-4 -2.5993 1.164-2.5996 2.5996v4.6992c-7.19e-4 1.4363 1.1633 2.6012 2.5996 2.6016h36.25c1.4363-3.59e-4 2.6003-1.1652 2.5996-2.6016v-4.6992c-3.59e-4 -1.4356-1.164-2.5992-2.5996-2.5996z" fill="#4f4f4f"/>
</svg>
