<?xml version="1.0" encoding="UTF-8"?>
<svg width="100" height="100" version="1.1" viewBox="0 0 26.458 26.458" xmlns="http://www.w3.org/2000/svg">
<g transform="translate(0 -270.54)">
<path d="m12.91 292.2q-0.07974 0.31895-0.07974 0.57411 0 0.6379 0.52627 0.84522 0.52627 0.19137 1.7861 0.19137l-0.04784 0.62195q-2.0732 0.6698-3.2214 0.6698-0.89306 0-1.4034-0.46248-0.49437-0.46248-0.49437-1.4034 0-0.44653 0.12758-1.1163l1.9137-9.2974q0.04784-0.27111 0.07974-0.46248 0.04784-0.20732 0.04784-0.36679 0-0.43059-0.36679-0.60601t-1.8818-0.17542l0.047843-0.60601q2.1689-0.73359 3.3968-0.73359 0.81332 0 1.2599 0.38274 0.46248 0.3668 0.46248 1.1642 0 0.3349-0.06379 0.65385zm3.5404-18.085q0 0.82927-0.51032 1.3555-0.51032 0.51032-1.2758 0.51032-0.74954 0-1.2439-0.47843-0.47843-0.49437-0.47843-1.2598 0-0.84522 0.51032-1.3396 0.51032-0.49437 1.2918-0.49437 0.74954 0 1.228 0.46248 0.47843 0.44653 0.47843 1.2439z"/>
</g>
</svg>
