<?xml version="1.0" encoding="UTF-8"?>
<svg width="100" height="100" version="1.1" viewBox="0 0 26.458 26.458" xmlns="http://www.w3.org/2000/svg">
<g>
<path d="m25.084 13.229a11.854 11.854 0 0 1-11.854 11.854 11.854 11.854 0 0 1-11.854-11.854 11.854 11.854 0 0 1 11.854-11.854 11.854 11.854 0 0 1 11.854 11.854z" fill="none" opacity=".25" stroke="#f0f" stroke-linecap="round" stroke-width=".13229"/>
</g>
<g transform="translate(0 -270.54)">
<g aria-label="i">
<g aria-label="B">
<path d="m13.891 281.15q1.3967 0 2.118-0.61392t0.72135-1.8111q0-1.1818-0.72135-1.7957-0.72135-0.62927-2.118-0.62927h-3.2691v4.85zm0.19952 10.022q1.7804 0 2.6705-0.75205 0.90553-0.75205 0.90553-2.2715 0-1.4888-0.89018-2.2255-0.89018-0.75205-2.6859-0.75205h-3.4686v6.0011zm5.4946-8.2419q1.9031 0.55253 2.9468 2.0413 1.0437 1.4888 1.0437 3.6528 0 3.3152-2.2408 4.942-2.2408 1.6269-6.8145 1.6269h-9.8073v-22.914h8.8711q4.7732 0 6.9066 1.4427 2.1487 1.4427 2.1487 4.6197 0 1.6729-0.78275 2.8547-0.78275 1.1664-2.2715 1.7343z" stroke-width=".26735"/>
</g>
</g>
</g>
</svg>
