<?xml version="1.0" encoding="UTF-8"?>
<svg width="100" height="100" version="1.1" viewBox="0 0 26.458 26.458" xmlns="http://www.w3.org/2000/svg">
<g display="none">
<path d="m25.084 13.229a11.854 11.854 0 0 1-11.854 11.854 11.854 11.854 0 0 1-11.854-11.854 11.854 11.854 0 0 1 11.854-11.854 11.854 11.854 0 0 1 11.854 11.854z" fill="none" opacity=".25" stroke="#f0f" stroke-linecap="round" stroke-width=".13229"/>
</g>
<g transform="translate(0 -270.54)">
<path d="m23.2 288.15v1.1919l-5.2047 5.2047-1.5892-1.5892 3.0857-3.0858h-16.144v-2.2514h16.144l-3.0857-3.0857 1.5892-1.5892zm-20.077-8.759v-1.1919l5.2047-5.2047 1.5892 1.5892-3.0857 3.0857h16.144v2.2514h-16.144l3.0857 3.0858-1.5892 1.5892z" fill="#727272"/>
</g>
</svg>
