<?xml version="1.0" encoding="UTF-8"?>
<svg version="1.1" viewBox="0 0 85.333 85.333" xmlns="http://www.w3.org/2000/svg">
<path d="m43.058 7.1895a4.5004 4.5004 0 0 0-4.1074 2.2441l-16.861 29.203-16.859 29.203a4.5004 4.5004 0 0 0 3.8965 6.75h67.441a4.5004 4.5004 0 0 0 3.8965-6.75l-16.859-29.203-16.861-29.203a4.5004 4.5004 0 0 0-3.6855-2.2441z" fill="#f7d020"/>
<path d="m40.351 65.036q-1.0212-1.0521-1.0212-2.4446t1.0212-2.3518q1.0521-0.99023 2.4446-0.99023t2.3518 0.99023q0.99024 0.95929 0.99024 2.3518t-0.99024 2.4446q-0.95929 1.0212-2.3518 1.0212t-2.4446-1.0212zm0.46417-40.754q0.86646-1.114 2.228-1.114t2.0424 1.114q0.68079 1.114 0.68079 2.4756 0 6.6222-2.1661 27.974-0.37134 0.74268-0.99023 0.80456-0.58795-0.24756-0.80456-0.68079-1.8567-21.352-1.8567-28.098 0-1.3616 0.86646-2.4756z" fill="#fff"/>
</svg>
