<svg viewBox="0 0 85.3 85.3" xmlns="http://www.w3.org/2000/svg"><path d="M43 7.2c-1.6 0-3.2.8-4 2.2L22 38.6 5.3 67.8c-1.7 3 .5 6.8 4 6.8h67.4c3.4 0 5.6-3.8 3.9-6.8L63.6 38.6 46.7 9.4a4.5 4.5 0 0 0-3.6-2.2Zm0 12.7c1.1 0 2 .4 2.4 1.3.6.9.8 1.8.8 2.9 0 5-.8 15.8-2.5 32.2-.3.5-.6.8-1.1.9-.5-.2-.8-.5-1-.8a478.1 478.1 0 0 1-2-32.3c0-1.1.3-2 1-2.9.6-.9 1.4-1.3 2.5-1.3zm-.2 41.6c1 0 2 .3 2.7 1.1.8.7 1.2 1.6 1.2 2.7 0 1-.4 2-1.2 2.8-.7.8-1.6 1.2-2.7 1.2-1 0-2-.4-2.8-1.2a4 4 0 0 1-1.2-2.8c0-1 .4-2 1.2-2.7a4 4 0 0 1 2.8-1.1z" style="fill:#f7d020"/></svg>